<svg xmlns="http://www.w3.org/2000/svg" xmlns:xlink="http://www.w3.org/1999/xlink" width="130" zoomAndPan="magnify" viewBox="0 0 97.5 30.000001" height="40" preserveAspectRatio="xMidYMid meet" version="1.0"><defs><clipPath id="97f3bc2954"><path d="M 9 6 L 27 6 L 27 25.8125 L 9 25.8125 Z M 9 6 " clip-rule="nonzero"/></clipPath><clipPath id="32c475940f"><path d="M 1.332031 3.3125 L 17 3.3125 L 17 25 L 1.332031 25 Z M 1.332031 3.3125 " clip-rule="nonzero"/></clipPath><clipPath id="d00d1cdac8"><path d="M 80 8 L 95.683594 8 L 95.683594 22 L 80 22 Z M 80 8 " clip-rule="nonzero"/></clipPath></defs><g clip-path="url(#97f3bc2954)"><path fill="#e8ac00" d="M 19.667969 11.425781 C 25.714844 12.222656 14.234375 28.191406 16.355469 26.519531 C 26.019531 18.890625 30.085938 7.132812 24.035156 6.332031 C 17.984375 5.53125 10.246094 10.238281 9.871094 12.992188 C 9.496094 15.742188 13.617188 10.625 19.667969 11.425781 " fill-opacity="1" fill-rule="nonzero"/></g><g clip-path="url(#32c475940f)"><path fill="#919292" d="M 6.960938 11.171875 C 4.539062 16.660156 18.433594 26.808594 13.382812 24.242188 C 10.898438 22.976562 -0.503906 12.679688 1.921875 7.191406 C 4.34375 1.703125 13.421875 3.3125 15.984375 4.417969 C 18.550781 5.519531 9.386719 5.683594 6.960938 11.171875 " fill-opacity="1" fill-rule="nonzero"/></g><path fill="#919292" d="M 50.144531 20.914062 L 62.539062 20.914062 L 62.539062 18.308594 L 53.753906 18.308594 L 53.753906 15.988281 L 61.636719 15.988281 L 61.636719 13.546875 L 53.753906 13.546875 L 53.753906 11.351562 L 62.539062 11.351562 L 62.539062 8.726562 L 50.144531 8.726562 Z M 50.144531 20.914062 " fill-opacity="1" fill-rule="nonzero"/><path fill="#919292" d="M 46.695312 14.53125 C 47.511719 14.105469 47.898438 13.503906 47.898438 12.671875 L 47.898438 11.441406 C 47.898438 9.535156 46.5 8.605469 43.625 8.605469 L 34.097656 8.605469 L 34.097656 21.035156 L 44.074219 21.035156 C 46.832031 21.035156 48.414062 19.914062 48.414062 17.964844 L 48.414062 16.789062 C 48.414062 15.796875 47.726562 14.925781 46.695312 14.53125 M 37.695312 11.195312 L 42.898438 11.195312 C 43.058594 11.199219 43.390625 11.207031 43.492188 11.207031 C 44.726562 11.207031 44.765625 11.703125 44.765625 12.351562 L 44.765625 12.359375 C 44.765625 13.011719 44.675781 13.507812 43.492188 13.507812 C 43.390625 13.507812 43.058594 13.515625 42.898438 13.515625 L 37.695312 13.539062 Z M 45.320312 17.246094 C 45.320312 17.925781 45.21875 18.449219 43.980469 18.449219 C 43.875 18.449219 43.527344 18.457031 43.355469 18.457031 L 37.671875 18.480469 L 37.671875 16.023438 L 43.355469 16.023438 C 43.527344 16.027344 43.875 16.035156 43.980469 16.035156 C 45.273438 16.035156 45.320312 16.554688 45.320312 17.234375 Z M 45.320312 17.246094 " fill-opacity="1" fill-rule="nonzero"/><path fill="#919292" d="M 78.335938 20.398438 C 78.921875 19.808594 78.921875 19.164062 78.921875 19.164062 L 78.925781 19.164062 L 78.925781 13.59375 L 71.691406 13.59375 L 71.691406 16.027344 L 75.765625 16.027344 L 75.765625 18.324219 C 75.507812 18.324219 75.171875 18.328125 74.785156 18.328125 C 74.039062 18.332031 73.113281 18.335938 72.214844 18.335938 C 70.953125 18.335938 70.070312 18.328125 69.511719 18.3125 C 67.898438 18.261719 67.683594 17.53125 67.683594 16.820312 L 67.683594 12.765625 C 67.683594 11.960938 67.992188 11.410156 69.511719 11.347656 C 69.953125 11.328125 70.886719 11.320312 72.296875 11.320312 C 74.792969 11.320312 77.953125 11.347656 77.984375 11.351562 L 78.183594 11.351562 L 78.183594 8.648438 L 77.996094 8.644531 C 75.929688 8.5625 73.40625 8.542969 71.652344 8.542969 C 70.941406 8.542969 70.21875 8.546875 69.503906 8.550781 C 66.050781 8.578125 64.070312 9.964844 64.070312 12.359375 L 64.070312 17.28125 C 64.070312 19.667969 66.101562 21.089844 69.503906 21.089844 L 76.042969 21.089844 C 76.496094 21.058594 77.804688 20.929688 78.335938 20.398438 " fill-opacity="1" fill-rule="nonzero"/><g clip-path="url(#d00d1cdac8)"><path fill="#919292" d="M 94.925781 10.695312 C 94.457031 9.710938 93.457031 8.539062 91.34375 8.539062 C 91.34375 8.539062 90 8.445312 88.054688 8.445312 C 86.113281 8.445312 84.796875 8.539062 84.796875 8.539062 L 84.789062 8.539062 C 84.746094 8.539062 83.757812 8.59375 82.757812 9.144531 C 81.820312 9.660156 80.707031 10.714844 80.707031 12.824219 L 80.707031 17 C 80.707031 17.042969 80.714844 18.066406 81.214844 19.101562 C 81.683594 20.070312 82.683594 21.230469 84.796875 21.230469 C 84.796875 21.230469 85.894531 21.339844 88.070312 21.339844 C 90.246094 21.339844 91.347656 21.230469 91.347656 21.230469 C 91.390625 21.226562 92.378906 21.1875 93.382812 20.648438 C 94.316406 20.148438 95.429688 19.109375 95.429688 17 L 95.429688 12.824219 C 95.429688 12.78125 95.425781 11.746094 94.925781 10.695312 M 92.167969 16.722656 C 92.167969 17.59375 91.445312 18.308594 90.5625 18.308594 C 90.5625 18.308594 89.675781 18.328125 88.113281 18.328125 C 86.550781 18.328125 85.578125 18.308594 85.578125 18.308594 C 84.695312 18.308594 83.96875 17.59375 83.96875 16.722656 L 83.96875 13.128906 C 83.96875 12.257812 84.695312 11.542969 85.578125 11.542969 C 85.578125 11.542969 86.820312 11.457031 88.070312 11.457031 C 89.316406 11.457031 90.5625 11.542969 90.5625 11.542969 C 91.445312 11.542969 92.167969 12.257812 92.167969 13.128906 Z M 92.167969 16.722656 " fill-opacity="1" fill-rule="nonzero"/></g></svg>