<svg xmlns="http://www.w3.org/2000/svg" xmlns:xlink="http://www.w3.org/1999/xlink" width="130" zoomAndPan="magnify" viewBox="0 0 97.5 30.000001" height="40" preserveAspectRatio="xMidYMid meet" version="1.0"><defs><clipPath id="08ae63dfbe"><path d="M 72 21 L 76 21 L 76 26.128906 L 72 26.128906 Z M 72 21 " clip-rule="nonzero"/></clipPath><clipPath id="640c677eea"><path d="M 1.332031 2.902344 L 19 2.902344 L 19 19 L 1.332031 19 Z M 1.332031 2.902344 " clip-rule="nonzero"/></clipPath><clipPath id="984b5225c9"><path d="M 91 5 L 95.683594 5 L 95.683594 9 L 91 9 Z M 91 5 " clip-rule="nonzero"/></clipPath></defs><path fill="#53575a" d="M 24.007812 24.625 L 23.652344 23.675781 L 21.859375 23.675781 L 21.503906 24.625 L 20.910156 24.625 L 22.449219 20.511719 L 23.101562 20.511719 L 24.660156 24.625 Z M 22.945312 21.699219 C 22.863281 21.5 22.824219 21.320312 22.765625 21.125 C 22.707031 21.300781 22.648438 21.480469 22.589844 21.699219 L 22.015625 23.242188 L 23.535156 23.242188 Z M 22.945312 21.699219 " fill-opacity="1" fill-rule="nonzero"/><path fill="#53575a" d="M 27.5 24.683594 C 27.183594 24.683594 26.871094 24.644531 26.574219 24.566406 L 26.632812 24.03125 C 26.910156 24.152344 27.222656 24.191406 27.519531 24.191406 C 28.011719 24.191406 28.425781 23.992188 28.425781 23.496094 C 28.425781 22.566406 26.515625 22.925781 26.515625 21.636719 C 26.515625 20.964844 27.046875 20.472656 27.992188 20.472656 C 28.25 20.472656 28.507812 20.492188 28.761719 20.550781 L 28.683594 21.042969 C 28.445312 20.984375 28.191406 20.945312 27.953125 20.945312 C 27.382812 20.945312 27.105469 21.203125 27.105469 21.578125 C 27.105469 22.449219 29.058594 22.152344 29.058594 23.4375 C 29.058594 24.171875 28.425781 24.683594 27.5 24.683594 Z M 27.5 24.683594 " fill-opacity="1" fill-rule="nonzero"/><path fill="#53575a" d="M 30.914062 24.683594 C 30.261719 24.683594 30.085938 24.425781 30.085938 23.773438 L 30.085938 22.015625 L 29.433594 22.015625 L 29.433594 21.617188 L 30.085938 21.617188 L 30.085938 20.628906 L 30.65625 20.472656 L 30.65625 21.597656 L 31.523438 21.597656 L 31.523438 21.996094 L 30.636719 21.996094 L 30.636719 23.558594 C 30.636719 24.050781 30.734375 24.191406 31.089844 24.191406 C 31.226562 24.191406 31.347656 24.171875 31.484375 24.152344 L 31.542969 24.605469 C 31.347656 24.644531 31.128906 24.683594 30.914062 24.683594 Z M 30.914062 24.683594 " fill-opacity="1" fill-rule="nonzero"/><path fill="#53575a" d="M 33.890625 22.09375 C 33.222656 21.972656 32.925781 22.449219 32.925781 23.417969 L 32.925781 24.644531 L 32.351562 24.644531 L 32.351562 21.617188 L 32.90625 21.617188 C 32.90625 21.855469 32.886719 22.09375 32.828125 22.332031 C 32.945312 21.816406 33.417969 21.480469 33.949219 21.558594 Z M 33.890625 22.09375 " fill-opacity="1" fill-rule="nonzero"/><path fill="#53575a" d="M 36.179688 24.625 C 36.179688 24.425781 36.179688 24.230469 36.199219 24.050781 C 36.023438 24.46875 35.585938 24.722656 35.132812 24.703125 C 34.699219 24.746094 34.304688 24.425781 34.265625 23.992188 C 34.265625 23.992188 34.265625 23.972656 34.265625 23.972656 C 34.265625 23.953125 34.265625 23.914062 34.265625 23.894531 C 34.265625 23.242188 34.9375 22.84375 36.140625 22.84375 L 36.140625 22.707031 C 36.140625 22.230469 35.960938 21.996094 35.488281 21.996094 C 35.171875 22.015625 34.839844 22.074219 34.542969 22.210938 L 34.425781 21.777344 C 34.796875 21.636719 35.171875 21.558594 35.585938 21.558594 C 36.457031 21.558594 36.75 21.972656 36.75 22.609375 L 36.75 24.664062 Z M 36.140625 23.222656 C 35.113281 23.222656 34.820312 23.496094 34.820312 23.792969 C 34.820312 24.050781 34.996094 24.25 35.253906 24.25 L 35.292969 24.25 C 35.785156 24.210938 36.160156 23.773438 36.140625 23.28125 Z M 36.140625 23.222656 " fill-opacity="1" fill-rule="nonzero"/><path fill="#53575a" d="M 39.847656 24.625 C 39.847656 24.40625 39.867188 24.191406 39.886719 23.992188 C 39.691406 24.425781 39.257812 24.703125 38.785156 24.683594 C 38.328125 24.746094 37.894531 24.40625 37.835938 23.953125 C 37.816406 23.875 37.816406 23.792969 37.835938 23.714844 L 37.835938 21.617188 L 38.410156 21.617188 L 38.410156 23.558594 C 38.410156 23.992188 38.527344 24.25 38.941406 24.25 C 39.453125 24.25 39.828125 23.734375 39.828125 23.082031 L 39.828125 21.617188 L 40.421875 21.617188 L 40.421875 24.644531 L 39.847656 24.644531 Z M 39.847656 24.625 " fill-opacity="1" fill-rule="nonzero"/><path fill="#53575a" d="M 45.410156 24.625 L 45.410156 22.6875 C 45.410156 22.269531 45.3125 21.996094 44.898438 21.996094 C 44.484375 21.996094 44.03125 22.449219 44.03125 23.160156 L 44.03125 24.605469 L 43.457031 24.605469 L 43.457031 22.6875 C 43.457031 22.3125 43.378906 21.996094 42.945312 21.996094 C 42.511719 21.996094 42.078125 22.488281 42.078125 23.179688 L 42.078125 24.625 L 41.503906 24.625 L 41.503906 21.617188 L 42.058594 21.617188 C 42.058594 21.835938 42.058594 22.054688 42.039062 22.25 C 42.214844 21.816406 42.648438 21.539062 43.121094 21.558594 C 43.539062 21.5 43.933594 21.796875 43.972656 22.230469 C 43.972656 22.230469 43.972656 22.25 43.972656 22.25 C 44.167969 21.835938 44.582031 21.558594 45.035156 21.578125 C 45.609375 21.578125 45.964844 21.875 45.964844 22.566406 L 45.964844 24.644531 Z M 45.410156 24.625 " fill-opacity="1" fill-rule="nonzero"/><path fill="#53575a" d="M 48.765625 24.625 C 48.765625 24.425781 48.765625 24.230469 48.785156 24.050781 C 48.605469 24.46875 48.171875 24.722656 47.71875 24.703125 C 47.285156 24.746094 46.890625 24.425781 46.851562 23.992188 C 46.851562 23.992188 46.851562 23.972656 46.851562 23.972656 C 46.851562 23.953125 46.851562 23.914062 46.851562 23.894531 C 46.851562 23.242188 47.542969 22.84375 48.726562 22.84375 L 48.726562 22.707031 C 48.726562 22.230469 48.546875 21.996094 48.074219 21.996094 C 47.757812 22.015625 47.421875 22.074219 47.128906 22.210938 L 47.007812 21.777344 C 47.382812 21.636719 47.757812 21.558594 48.171875 21.558594 C 49.039062 21.558594 49.335938 21.972656 49.335938 22.609375 L 49.335938 24.664062 Z M 48.746094 23.222656 C 47.71875 23.222656 47.421875 23.496094 47.421875 23.792969 C 47.421875 24.050781 47.601562 24.25 47.855469 24.25 L 47.898438 24.25 C 48.390625 24.210938 48.765625 23.773438 48.726562 23.28125 Z M 48.746094 23.222656 " fill-opacity="1" fill-rule="nonzero"/><path fill="#53575a" d="M 52.394531 24.625 L 52.394531 22.6875 C 52.394531 22.25 52.277344 22.015625 51.863281 22.015625 C 51.347656 22.015625 50.972656 22.527344 50.972656 23.160156 L 50.972656 24.605469 L 50.402344 24.605469 L 50.402344 21.617188 L 50.953125 21.617188 C 50.953125 21.835938 50.933594 22.054688 50.914062 22.25 C 51.113281 21.816406 51.546875 21.539062 52.019531 21.558594 C 52.472656 21.480469 52.925781 21.777344 53.003906 22.25 C 53.023438 22.351562 53.023438 22.429688 53.003906 22.527344 L 53.003906 24.644531 L 52.394531 24.644531 Z M 52.394531 24.625 " fill-opacity="1" fill-rule="nonzero"/><path fill="#53575a" d="M 56.101562 24.625 L 56.101562 22.6875 C 56.101562 22.25 55.984375 22.015625 55.570312 22.015625 C 55.058594 22.015625 54.683594 22.527344 54.683594 23.160156 L 54.683594 24.605469 L 54.128906 24.605469 L 54.128906 21.617188 L 54.683594 21.617188 C 54.683594 21.835938 54.664062 22.054688 54.644531 22.25 C 54.839844 21.816406 55.273438 21.539062 55.746094 21.558594 C 56.222656 21.5 56.636719 21.835938 56.695312 22.292969 C 56.695312 22.371094 56.695312 22.429688 56.695312 22.507812 L 56.695312 24.625 Z M 56.101562 24.625 " fill-opacity="1" fill-rule="nonzero"/><path fill="#53575a" d="M 61.054688 24.683594 C 59.730469 24.683594 58.941406 23.933594 58.941406 22.6875 C 58.863281 21.539062 59.710938 20.550781 60.855469 20.472656 C 60.996094 20.472656 61.132812 20.472656 61.25 20.472656 C 61.644531 20.472656 62.039062 20.53125 62.414062 20.648438 L 62.296875 21.164062 C 61.941406 21.023438 61.566406 20.964844 61.191406 20.964844 C 60.363281 20.886719 59.652344 21.5 59.574219 22.332031 C 59.574219 22.429688 59.574219 22.507812 59.574219 22.609375 C 59.476562 23.398438 60.046875 24.109375 60.855469 24.210938 C 60.953125 24.230469 61.054688 24.230469 61.152344 24.210938 C 61.410156 24.210938 61.644531 24.171875 61.902344 24.089844 L 61.902344 22.546875 L 62.472656 22.546875 L 62.472656 24.449219 C 62.019531 24.605469 61.546875 24.683594 61.054688 24.683594 Z M 61.054688 24.683594 " fill-opacity="1" fill-rule="nonzero"/><path fill="#53575a" d="M 65.097656 22.09375 C 64.445312 21.972656 64.109375 22.449219 64.109375 23.417969 L 64.109375 24.644531 L 63.539062 24.644531 L 63.539062 21.617188 L 64.109375 21.617188 C 64.109375 21.855469 64.089844 22.09375 64.03125 22.332031 C 64.128906 21.855469 64.585938 21.519531 65.078125 21.558594 Z M 65.097656 22.09375 " fill-opacity="1" fill-rule="nonzero"/><path fill="#53575a" d="M 66.890625 24.683594 C 66.042969 24.683594 65.492188 24.210938 65.492188 23.140625 C 65.433594 22.332031 66.0625 21.617188 66.871094 21.558594 C 66.910156 21.558594 66.972656 21.558594 67.011719 21.558594 C 67.820312 21.558594 68.410156 21.972656 68.410156 23.0625 C 68.46875 23.894531 67.839844 24.625 67.011719 24.683594 C 66.972656 24.683594 66.933594 24.683594 66.890625 24.683594 Z M 66.953125 22.015625 C 66.496094 22.015625 66.0625 22.351562 66.0625 23.101562 C 66.0625 23.855469 66.378906 24.269531 66.953125 24.269531 C 67.425781 24.269531 67.820312 23.914062 67.820312 23.101562 C 67.820312 22.410156 67.542969 22.015625 66.953125 22.015625 Z M 66.953125 22.015625 " fill-opacity="1" fill-rule="nonzero"/><path fill="#53575a" d="M 71.269531 24.625 C 71.269531 24.40625 71.292969 24.191406 71.3125 23.992188 C 71.113281 24.425781 70.679688 24.703125 70.207031 24.683594 C 69.753906 24.746094 69.320312 24.40625 69.257812 23.953125 C 69.238281 23.875 69.238281 23.792969 69.257812 23.714844 L 69.257812 21.617188 L 69.832031 21.617188 L 69.832031 23.558594 C 69.832031 23.992188 69.949219 24.25 70.363281 24.25 C 70.875 24.25 71.25 23.734375 71.25 23.082031 L 71.25 21.617188 L 71.824219 21.617188 L 71.824219 24.644531 L 71.269531 24.644531 Z M 71.269531 24.625 " fill-opacity="1" fill-rule="nonzero"/><g clip-path="url(#08ae63dfbe)"><path fill="#53575a" d="M 74.03125 24.664062 C 73.855469 24.664062 73.679688 24.664062 73.5 24.625 L 73.5 26.128906 L 72.929688 26.128906 L 72.929688 21.617188 L 73.480469 21.617188 C 73.480469 21.816406 73.460938 22.035156 73.441406 22.230469 C 73.617188 21.816406 74.03125 21.539062 74.488281 21.558594 C 75.214844 21.558594 75.648438 22.054688 75.648438 22.984375 C 75.75 23.8125 75.175781 24.566406 74.347656 24.664062 C 74.230469 24.664062 74.132812 24.664062 74.03125 24.664062 Z M 74.347656 22.015625 C 73.777344 22.015625 73.5 22.667969 73.5 23.160156 L 73.5 24.152344 C 73.679688 24.210938 73.855469 24.230469 74.050781 24.230469 C 74.625 24.230469 75.039062 23.875 75.039062 23.003906 C 75.039062 22.371094 74.820312 22.015625 74.347656 22.015625 Z M 74.347656 22.015625 " fill-opacity="1" fill-rule="nonzero"/></g><path fill="#53575a" d="M 79.003906 24.644531 L 77.917969 24.644531 L 77.917969 20.53125 L 79.160156 20.53125 C 80.070312 20.53125 80.523438 20.90625 80.523438 21.519531 C 80.523438 21.972656 80.226562 22.351562 79.792969 22.46875 C 80.285156 22.507812 80.660156 22.925781 80.660156 23.417969 C 80.660156 23.953125 80.265625 24.644531 79.003906 24.644531 Z M 79.082031 20.964844 L 78.511719 20.964844 L 78.511719 22.292969 L 78.90625 22.292969 C 79.59375 22.292969 79.929688 22.035156 79.929688 21.578125 C 79.929688 21.222656 79.714844 20.964844 79.082031 20.964844 Z M 78.90625 22.6875 L 78.511719 22.6875 L 78.511719 24.132812 C 78.628906 24.132812 78.867188 24.171875 79.0625 24.171875 C 79.753906 24.171875 80.070312 23.835938 80.070312 23.398438 C 80.070312 22.964844 79.613281 22.726562 78.925781 22.726562 Z M 78.90625 22.6875 " fill-opacity="1" fill-rule="nonzero"/><path fill="#53575a" d="M 83.105469 22.09375 C 82.457031 21.972656 82.140625 22.449219 82.140625 23.417969 L 82.140625 24.644531 L 81.566406 24.644531 L 81.566406 21.617188 L 82.121094 21.617188 C 82.121094 21.855469 82.101562 22.09375 82.042969 22.332031 C 82.160156 21.835938 82.613281 21.5 83.125 21.558594 Z M 83.105469 22.09375 " fill-opacity="1" fill-rule="nonzero"/><path fill="#53575a" d="M 85.414062 24.625 C 85.414062 24.425781 85.414062 24.230469 85.453125 24.050781 C 85.257812 24.46875 84.84375 24.722656 84.390625 24.703125 C 83.953125 24.746094 83.558594 24.425781 83.519531 23.992188 C 83.519531 23.992188 83.519531 23.972656 83.519531 23.972656 C 83.519531 23.953125 83.519531 23.914062 83.519531 23.894531 C 83.519531 23.242188 84.210938 22.84375 85.394531 22.84375 L 85.394531 22.707031 C 85.394531 22.230469 85.21875 21.996094 84.742188 21.996094 C 84.429688 22.015625 84.09375 22.074219 83.796875 22.210938 L 83.699219 21.777344 C 84.074219 21.636719 84.449219 21.558594 84.863281 21.558594 C 85.730469 21.558594 86.027344 21.972656 86.027344 22.609375 L 86.027344 24.664062 Z M 85.394531 23.222656 C 84.367188 23.222656 84.074219 23.496094 84.074219 23.792969 C 84.074219 24.050781 84.269531 24.25 84.527344 24.25 L 84.546875 24.25 C 85.039062 24.210938 85.414062 23.773438 85.394531 23.28125 Z M 85.394531 23.222656 " fill-opacity="1" fill-rule="nonzero"/><path fill="#53575a" d="M 89.0625 24.625 L 89.0625 22.6875 C 89.0625 22.25 88.945312 22.015625 88.53125 22.015625 C 88.019531 22.015625 87.644531 22.527344 87.644531 23.160156 L 87.644531 24.605469 L 87.070312 24.605469 L 87.070312 21.617188 L 87.644531 21.617188 C 87.644531 21.835938 87.625 22.054688 87.585938 22.25 C 87.78125 21.816406 88.214844 21.539062 88.6875 21.558594 C 89.164062 21.5 89.578125 21.835938 89.636719 22.292969 C 89.636719 22.371094 89.636719 22.429688 89.636719 22.507812 L 89.636719 24.625 Z M 89.0625 24.625 " fill-opacity="1" fill-rule="nonzero"/><path fill="#53575a" d="M 92.632812 24.625 C 92.632812 24.425781 92.652344 24.210938 92.691406 24.011719 C 92.515625 24.425781 92.101562 24.703125 91.648438 24.683594 C 90.878906 24.683594 90.484375 24.152344 90.484375 23.261719 C 90.386719 22.410156 90.996094 21.65625 91.84375 21.578125 C 91.925781 21.578125 92.023438 21.578125 92.101562 21.578125 C 92.277344 21.578125 92.457031 21.578125 92.632812 21.617188 L 92.632812 20.214844 L 93.207031 20.214844 L 93.207031 24.644531 L 92.632812 24.644531 Z M 92.632812 22.054688 C 92.4375 22.015625 92.257812 21.996094 92.0625 21.996094 C 91.488281 21.996094 91.074219 22.351562 91.074219 23.222656 C 91.074219 23.875 91.292969 24.25 91.765625 24.25 C 92.339844 24.25 92.613281 23.597656 92.613281 23.082031 Z M 92.632812 22.054688 " fill-opacity="1" fill-rule="nonzero"/><g clip-path="url(#640c677eea)"><path fill="#d52b1e" d="M 14.324219 3.0625 L 14.085938 2.902344 L 13.160156 4.269531 C 11.109375 3.0625 8.5625 3.082031 6.511719 4.308594 L 5.546875 2.941406 L 5.308594 3.101562 C 1.480469 5.613281 0.417969 10.777344 2.921875 14.613281 C 5.425781 18.453125 10.574219 19.519531 14.402344 16.988281 C 18.230469 14.457031 19.292969 9.3125 16.789062 5.476562 C 16.136719 4.503906 15.308594 3.675781 14.324219 3.0625 Z M 8.011719 13.289062 L 7.875 13.191406 C 6.078125 12.0625 5.527344 9.707031 6.652344 7.910156 C 7.773438 6.109375 10.121094 5.554688 11.917969 6.683594 C 13.710938 7.808594 14.265625 10.164062 13.140625 11.964844 C 12.824219 12.457031 12.410156 12.875 11.917969 13.191406 L 11.777344 13.269531 L 12.332031 14.0625 C 10.832031 14.992188 8.957031 14.992188 7.460938 14.0625 Z M 9.867188 17.78125 C 5.605469 17.78125 2.152344 14.296875 2.152344 10.023438 C 2.152344 7.53125 3.355469 5.179688 5.386719 3.734375 L 6.808594 5.710938 C 4.421875 7.394531 3.847656 10.699219 5.527344 13.089844 C 7.203125 15.484375 10.496094 16.058594 12.882812 14.378906 C 15.269531 12.695312 15.84375 9.390625 14.164062 7 C 13.8125 6.503906 13.375 6.070312 12.882812 5.710938 L 14.246094 3.714844 C 17.757812 6.148438 18.605469 10.976562 16.179688 14.476562 C 14.738281 16.554688 12.390625 17.800781 9.867188 17.78125 Z M 9.867188 17.78125 " fill-opacity="1" fill-rule="nonzero"/></g><path fill="#53575a" d="M 27.992188 15.328125 L 27.992188 8.777344 L 25.746094 13.546875 L 24.640625 13.546875 L 22.332031 8.777344 L 22.332031 15.328125 L 20.851562 15.328125 L 20.851562 5.515625 L 22.332031 5.515625 L 25.191406 11.628906 L 27.992188 5.515625 L 29.472656 5.515625 L 29.472656 15.328125 Z M 27.992188 15.328125 " fill-opacity="1" fill-rule="nonzero"/><path fill="#53575a" d="M 31.5625 15.328125 L 31.5625 5.515625 L 37.816406 5.515625 L 37.816406 6.859375 L 33.042969 6.859375 L 33.042969 9.730469 L 37.105469 9.730469 L 37.105469 11.054688 L 33.042969 11.054688 L 33.042969 14 L 37.816406 14 L 37.816406 15.328125 Z M 31.5625 15.328125 " fill-opacity="1" fill-rule="nonzero"/><path fill="#53575a" d="M 45.84375 14.398438 C 45.15625 15.03125 44.246094 15.367188 43.320312 15.328125 L 39.886719 15.328125 L 39.886719 5.515625 L 43.320312 5.515625 C 44.246094 5.476562 45.15625 5.8125 45.84375 6.445312 C 46.910156 7.511719 46.832031 8.9375 46.832031 10.363281 C 46.832031 11.785156 46.910156 13.347656 45.84375 14.398438 M 44.839844 7.53125 C 44.40625 7.058594 43.792969 6.820312 43.164062 6.859375 L 41.386719 6.859375 L 41.386719 14 L 43.164062 14 C 43.792969 14.042969 44.40625 13.804688 44.839844 13.328125 C 45.351562 12.753906 45.351562 11.707031 45.351562 10.363281 C 45.351562 9.015625 45.351562 8.085938 44.839844 7.511719 " fill-opacity="1" fill-rule="nonzero"/><path fill="#53575a" d="M 48.707031 15.328125 L 48.707031 5.515625 L 54.9375 5.515625 L 54.9375 6.859375 L 50.183594 6.859375 L 50.183594 9.730469 L 54.25 9.730469 L 54.25 11.054688 L 50.183594 11.054688 L 50.183594 14 L 54.9375 14 L 54.9375 15.328125 Z M 48.707031 15.328125 " fill-opacity="1" fill-rule="nonzero"/><path fill="#53575a" d="M 63.027344 15.328125 L 58.507812 8.421875 L 58.507812 15.328125 L 57.03125 15.328125 L 57.03125 5.515625 L 58.390625 5.515625 L 62.90625 12.398438 L 62.90625 5.515625 L 64.386719 5.515625 L 64.386719 15.328125 Z M 63.027344 15.328125 " fill-opacity="1" fill-rule="nonzero"/><path fill="#53575a" d="M 69.949219 6.859375 L 69.949219 15.328125 L 68.46875 15.328125 L 68.46875 6.859375 L 65.769531 6.859375 L 65.769531 5.515625 L 72.652344 5.515625 L 72.652344 6.859375 Z M 69.949219 6.859375 " fill-opacity="1" fill-rule="nonzero"/><g clip-path="url(#984b5225c9)"><path fill="#53575a" d="M 93.640625 8.738281 C 92.652344 8.738281 91.84375 7.929688 91.84375 6.9375 C 91.84375 5.949219 92.652344 5.140625 93.640625 5.140625 C 94.625 5.140625 95.433594 5.949219 95.433594 6.9375 C 95.433594 7.910156 94.644531 8.71875 93.640625 8.738281 C 93.640625 8.71875 93.640625 8.71875 93.640625 8.738281 M 93.640625 5.457031 C 92.851562 5.457031 92.199219 6.109375 92.199219 6.898438 L 92.199219 6.917969 C 92.21875 7.710938 92.871094 8.363281 93.660156 8.34375 C 94.449219 8.324219 95.101562 7.671875 95.078125 6.878906 C 95.058594 6.089844 94.429688 5.476562 93.660156 5.457031 L 93.640625 5.457031 M 94.015625 7.886719 L 93.621094 7.117188 L 93.363281 7.117188 L 93.363281 7.886719 L 93.007812 7.886719 L 93.007812 5.929688 L 93.738281 5.929688 C 94.054688 5.910156 94.332031 6.148438 94.371094 6.464844 C 94.371094 6.484375 94.371094 6.503906 94.371094 6.523438 C 94.371094 6.761719 94.210938 6.980469 93.976562 7.058594 L 94.410156 7.886719 Z M 93.699219 6.246094 L 93.363281 6.246094 L 93.363281 6.820312 L 93.699219 6.820312 C 93.855469 6.839844 94.015625 6.703125 94.015625 6.542969 L 94.015625 6.523438 C 94.015625 6.367188 93.875 6.226562 93.71875 6.226562 L 93.699219 6.246094 " fill-opacity="1" fill-rule="nonzero"/></g><path fill="#53575a" d="M 89.617188 5.515625 L 88.414062 5.515625 L 85.453125 13.625 L 86.441406 15.289062 L 87.089844 13.386719 L 90.9375 13.386719 L 91.609375 15.367188 L 93.1875 15.367188 Z M 87.523438 12.101562 L 89.042969 7.75 L 90.523438 12.101562 Z M 87.523438 12.101562 " fill-opacity="1" fill-rule="nonzero"/><path fill="#53575a" d="M 83.699219 15.328125 L 80.957031 10.5 L 79.320312 12.476562 L 79.320312 15.328125 L 77.820312 15.328125 L 77.820312 5.515625 L 79.320312 5.515625 L 79.320312 10.460938 L 83.304688 5.515625 L 85.117188 5.515625 L 81.941406 9.351562 L 85.453125 15.328125 Z M 83.699219 15.328125 " fill-opacity="1" fill-rule="nonzero"/><path fill="#53575a" d="M 75.75 6.859375 L 75.75 5.515625 L 74.269531 5.515625 L 74.269531 6.859375 Z M 74.269531 7.375 L 74.269531 15.347656 L 75.75 15.347656 L 75.75 7.375 Z M 74.269531 7.375 " fill-opacity="1" fill-rule="nonzero"/></svg>