<svg xmlns="http://www.w3.org/2000/svg" xmlns:xlink="http://www.w3.org/1999/xlink" width="130" zoomAndPan="magnify" viewBox="0 0 97.5 30.000001" height="40" preserveAspectRatio="xMidYMid meet" version="1.0"><defs><clipPath id="c4cde08792"><path d="M 93 15 L 95.683594 15 L 95.683594 17 L 93 17 Z M 93 15 " clip-rule="nonzero"/></clipPath><clipPath id="362e54cfe9"><path d="M 21 13 L 93 13 L 93 22.089844 L 21 22.089844 Z M 21 13 " clip-rule="nonzero"/></clipPath><clipPath id="14636529bf"><path d="M 5 6.847656 L 17 6.847656 L 17 22 L 5 22 Z M 5 6.847656 " clip-rule="nonzero"/></clipPath><clipPath id="4452130273"><path d="M 1.332031 6.847656 L 13 6.847656 L 13 22 L 1.332031 22 Z M 1.332031 6.847656 " clip-rule="nonzero"/></clipPath></defs><g clip-path="url(#c4cde08792)"><path fill="#000000" d="M 93.445312 16.976562 L 93.445312 15.769531 L 93.019531 15.769531 L 93.019531 15.570312 L 94.066406 15.570312 L 94.066406 15.769531 L 93.65625 15.769531 L 93.65625 16.976562 Z M 95.457031 16.976562 L 95.457031 15.933594 L 94.992188 16.554688 L 94.527344 15.933594 L 94.527344 16.976562 L 94.296875 16.976562 L 94.296875 15.585938 L 94.527344 15.585938 L 94.992188 16.226562 L 95.457031 15.585938 L 95.683594 15.585938 L 95.683594 16.976562 Z M 95.457031 16.976562 " fill-opacity="1" fill-rule="nonzero"/></g><g clip-path="url(#362e54cfe9)"><path fill="#000000" d="M 27.390625 19.222656 L 27.367188 19.222656 L 23.53125 13.351562 L 21.855469 13.351562 L 21.855469 21.820312 L 23.292969 21.820312 L 23.292969 15.597656 L 23.316406 15.597656 L 27.390625 21.820312 L 28.828125 21.820312 L 28.828125 13.351562 L 27.390625 13.351562 Z M 32.800781 15.453125 C 31.097656 15.453125 29.855469 16.691406 29.855469 18.734375 C 29.855469 20.773438 31.074219 21.972656 32.777344 21.972656 C 34.484375 21.972656 35.726562 20.730469 35.726562 18.695312 C 35.726562 16.660156 34.507812 15.453125 32.800781 15.453125 Z M 32.800781 20.746094 C 31.917969 20.746094 31.308594 20.011719 31.308594 18.71875 C 31.308594 17.429688 31.917969 16.691406 32.800781 16.691406 C 33.6875 16.691406 34.300781 17.433594 34.300781 18.71875 C 34.300781 20.007812 33.675781 20.746094 32.789062 20.746094 Z M 39.960938 15.453125 C 39.261719 15.449219 38.664062 15.691406 38.167969 16.183594 L 38.167969 13.351562 L 36.730469 13.351562 L 36.730469 21.820312 L 38 21.820312 L 38.0625 21.128906 C 38.523438 21.710938 39.125 21.996094 39.867188 21.984375 C 41.496094 21.984375 42.578125 20.652344 42.578125 18.648438 C 42.578125 16.648438 41.558594 15.453125 39.960938 15.453125 Z M 39.566406 20.746094 C 38.984375 20.730469 38.519531 20.496094 38.167969 20.035156 L 38.167969 17.386719 C 38.523438 16.9375 38.988281 16.703125 39.566406 16.691406 C 40.550781 16.691406 41.125 17.433594 41.125 18.695312 C 41.125 19.960938 40.539062 20.746094 39.570312 20.746094 Z M 46.300781 15.453125 C 44.5625 15.453125 43.398438 16.777344 43.398438 18.757812 C 43.398438 20.738281 44.5625 21.996094 46.421875 21.996094 C 47.335938 22 48.140625 21.710938 48.839844 21.125 L 48.203125 20.113281 C 47.714844 20.554688 47.136719 20.789062 46.476562 20.8125 C 45.546875 20.8125 45.015625 20.273438 44.871094 19.246094 L 49.058594 19.246094 L 49.058594 18.6875 C 49.054688 16.707031 47.980469 15.453125 46.300781 15.453125 Z M 44.863281 18.257812 C 44.898438 17.253906 45.460938 16.574219 46.257812 16.574219 C 47.054688 16.574219 47.589844 17.230469 47.621094 18.257812 Z M 52.0625 20.699219 C 51.734375 20.699219 51.566406 20.535156 51.566406 20.1875 L 51.566406 13.351562 L 50.132812 13.351562 L 50.132812 20.496094 C 50.109375 20.6875 50.128906 20.875 50.191406 21.058594 C 50.253906 21.242188 50.351562 21.402344 50.488281 21.542969 C 50.625 21.679688 50.785156 21.78125 50.964844 21.847656 C 51.148438 21.914062 51.335938 21.9375 51.53125 21.917969 C 51.917969 21.910156 52.296875 21.847656 52.667969 21.726562 L 52.546875 20.628906 C 52.386719 20.671875 52.226562 20.695312 52.0625 20.699219 Z M 60.261719 17.386719 L 60.261719 17.359375 C 60.648438 17.21875 60.957031 16.976562 61.183594 16.632812 C 61.410156 16.292969 61.515625 15.917969 61.496094 15.507812 C 61.496094 14.199219 60.511719 13.363281 58.976562 13.363281 L 55.886719 13.363281 L 55.886719 21.828125 L 59.042969 21.828125 C 60.746094 21.828125 61.835938 20.902344 61.835938 19.46875 C 61.847656 19.230469 61.820312 19 61.75 18.769531 C 61.679688 18.542969 61.574219 18.335938 61.429688 18.144531 C 61.285156 17.953125 61.113281 17.792969 60.914062 17.664062 C 60.710938 17.535156 60.496094 17.441406 60.261719 17.386719 Z M 56.714844 14.09375 L 58.9375 14.09375 C 60.011719 14.09375 60.695312 14.679688 60.695312 15.609375 C 60.695312 16.539062 60.035156 17.078125 58.992188 17.078125 L 56.714844 17.078125 Z M 59.042969 21.085938 L 56.714844 21.085938 L 56.714844 17.789062 L 59.042969 17.789062 C 60.289062 17.789062 61.019531 18.386719 61.019531 19.414062 C 61.019531 20.441406 60.273438 21.085938 59.042969 21.085938 Z M 63.546875 13.453125 C 63.398438 13.453125 63.273438 13.507812 63.167969 13.613281 C 63.0625 13.714844 63.007812 13.84375 63.007812 13.992188 C 63.007812 14.140625 63.0625 14.265625 63.167969 14.371094 C 63.273438 14.476562 63.398438 14.527344 63.546875 14.527344 C 63.695312 14.527344 63.824219 14.476562 63.929688 14.371094 C 64.035156 14.265625 64.089844 14.140625 64.089844 13.992188 C 64.09375 13.839844 64.042969 13.710938 63.9375 13.605469 C 63.828125 13.5 63.699219 13.449219 63.546875 13.453125 Z M 63.152344 15.617188 L 63.945312 15.617188 L 63.945312 21.816406 L 63.152344 21.816406 Z M 67.957031 15.453125 C 66.289062 15.453125 65.164062 16.765625 65.164062 18.734375 C 65.164062 20.699219 66.265625 21.972656 67.917969 21.972656 C 69.570312 21.972656 70.710938 20.664062 70.710938 18.695312 C 70.710938 16.730469 69.609375 15.453125 67.957031 15.453125 Z M 67.957031 21.273438 C 66.757812 21.273438 65.980469 20.285156 65.980469 18.71875 C 65.980469 17.15625 66.746094 16.183594 67.941406 16.183594 C 69.136719 16.183594 69.917969 17.175781 69.917969 18.734375 C 69.917969 20.292969 69.140625 21.273438 67.941406 21.273438 Z M 74.195312 21.296875 C 73.058594 21.296875 72.300781 20.269531 72.300781 18.734375 C 72.300781 17.199219 73.078125 16.148438 74.257812 16.148438 C 74.644531 16.15625 74.992188 16.277344 75.300781 16.511719 C 75.605469 16.746094 75.8125 17.050781 75.917969 17.417969 L 76.617188 17.101562 C 76.441406 16.609375 76.140625 16.214844 75.714844 15.914062 C 75.289062 15.609375 74.8125 15.457031 74.289062 15.453125 C 72.648438 15.453125 71.535156 16.777344 71.535156 18.742188 C 71.535156 20.710938 72.613281 21.980469 74.21875 21.980469 C 75.273438 21.980469 76.125 21.390625 76.664062 20.265625 L 75.980469 19.921875 C 75.523438 20.835938 74.9375 21.296875 74.195312 21.296875 Z M 82.402344 20.1875 L 82.402344 17.492188 C 82.402344 16.105469 81.695312 15.453125 80.234375 15.453125 C 79.296875 15.472656 78.425781 15.71875 77.617188 16.183594 L 77.898438 16.839844 C 78.578125 16.40625 79.324219 16.175781 80.136719 16.152344 C 81.140625 16.152344 81.609375 16.589844 81.609375 17.539062 L 81.609375 18.003906 C 78.4375 18.183594 77.421875 18.683594 77.421875 20.050781 C 77.421875 21.230469 78.261719 21.996094 79.554688 21.996094 C 80.371094 21.980469 81.070312 21.6875 81.648438 21.117188 C 81.722656 21.527344 81.949219 21.820312 82.332031 21.996094 L 82.835938 21.554688 C 82.484375 21.273438 82.402344 21 82.402344 20.1875 Z M 81.609375 20.4375 C 81.117188 21.011719 80.488281 21.308594 79.726562 21.320312 C 78.796875 21.320312 78.207031 20.855469 78.207031 20.042969 C 78.207031 19.066406 78.949219 18.742188 81.609375 18.566406 Z M 84.78125 16.601562 L 84.78125 15.621094 L 83.992188 15.621094 L 83.992188 21.820312 L 84.78125 21.820312 L 84.78125 17.335938 C 84.992188 17 85.269531 16.730469 85.617188 16.535156 C 85.964844 16.335938 86.335938 16.230469 86.734375 16.214844 C 86.933594 16.21875 87.128906 16.238281 87.320312 16.277344 L 87.320312 15.5 C 87.136719 15.472656 86.949219 15.457031 86.757812 15.453125 C 86.351562 15.457031 85.96875 15.5625 85.617188 15.769531 C 85.265625 15.972656 84.984375 16.25 84.78125 16.601562 Z M 90.226562 15.46875 C 88.597656 15.46875 87.492188 16.804688 87.492188 18.769531 C 87.492188 20.738281 88.597656 22.007812 90.34375 22.007812 C 91.226562 22.007812 91.984375 21.699219 92.617188 21.085938 L 92.238281 20.511719 C 91.722656 21.023438 91.105469 21.289062 90.375 21.296875 C 89.167969 21.296875 88.402344 20.476562 88.292969 19.042969 L 92.847656 19.042969 L 92.847656 18.6875 C 92.828125 16.734375 91.808594 15.46875 90.226562 15.46875 Z M 88.292969 18.4375 C 88.363281 17.078125 89.113281 16.183594 90.226562 16.183594 C 91.339844 16.183594 92.011719 17.066406 92.058594 18.460938 Z M 88.292969 18.4375 " fill-opacity="1" fill-rule="nonzero"/></g><g clip-path="url(#14636529bf)"><path fill="#cc0000" d="M 14.4375 9.074219 L 14.4375 19.757812 C 14.4375 19.835938 14.410156 19.902344 14.355469 19.957031 C 14.296875 20.011719 14.230469 20.039062 14.152344 20.039062 L 12.113281 20.039062 C 11.453125 20.039062 11.230469 19.949219 11.015625 19.65625 L 5.984375 12.734375 C 5.894531 12.65625 5.792969 12.644531 5.683594 12.695312 C 5.578125 12.742188 5.519531 12.828125 5.519531 12.945312 L 5.519531 14.878906 C 5.519531 14.976562 5.554688 15.058594 5.621094 15.128906 L 9.851562 21.144531 C 10.035156 21.386719 10.261719 21.570312 10.539062 21.695312 C 10.816406 21.820312 11.109375 21.867188 11.410156 21.84375 L 16.023438 21.84375 C 16.101562 21.84375 16.167969 21.816406 16.226562 21.761719 C 16.28125 21.703125 16.308594 21.636719 16.308594 21.5625 L 16.308594 7.214844 C 16.308594 7.136719 16.28125 7.070312 16.226562 7.015625 C 16.167969 6.957031 16.101562 6.929688 16.023438 6.929688 L 12.066406 6.929688 C 11.988281 6.929688 11.921875 6.957031 11.867188 7.015625 C 11.8125 7.070312 11.785156 7.136719 11.785156 7.214844 L 11.785156 8.507812 C 11.785156 8.585938 11.8125 8.652344 11.867188 8.707031 C 11.921875 8.761719 11.988281 8.789062 12.066406 8.789062 L 14.152344 8.789062 C 14.230469 8.789062 14.296875 8.820312 14.355469 8.875 C 14.410156 8.929688 14.4375 8.996094 14.4375 9.074219 Z M 14.4375 9.074219 " fill-opacity="1" fill-rule="nonzero"/></g><g clip-path="url(#4452130273)"><path fill="#cc0000" d="M 3.191406 19.675781 L 3.191406 9 C 3.191406 8.921875 3.21875 8.855469 3.277344 8.800781 C 3.332031 8.746094 3.398438 8.71875 3.476562 8.71875 L 5.519531 8.71875 C 6.179688 8.71875 6.398438 8.800781 6.613281 9.101562 L 11.625 16.039062 C 11.714844 16.128906 11.820312 16.148438 11.933594 16.101562 C 12.050781 16.050781 12.109375 15.964844 12.113281 15.84375 L 12.113281 13.871094 C 12.117188 13.785156 12.089844 13.707031 12.035156 13.640625 L 7.800781 7.625 C 7.617188 7.378906 7.386719 7.195312 7.105469 7.074219 C 6.824219 6.949219 6.53125 6.902344 6.226562 6.929688 L 1.613281 6.929688 C 1.535156 6.929688 1.46875 6.957031 1.414062 7.015625 C 1.359375 7.070312 1.332031 7.136719 1.332031 7.214844 L 1.332031 21.554688 C 1.332031 21.632812 1.359375 21.699219 1.414062 21.753906 C 1.46875 21.8125 1.535156 21.839844 1.613281 21.839844 L 5.570312 21.839844 C 5.648438 21.839844 5.714844 21.8125 5.769531 21.753906 C 5.828125 21.699219 5.855469 21.632812 5.855469 21.554688 L 5.855469 20.261719 C 5.855469 20.183594 5.828125 20.117188 5.769531 20.0625 C 5.714844 20.003906 5.648438 19.976562 5.570312 19.976562 L 3.484375 19.976562 C 3.402344 19.980469 3.332031 19.953125 3.273438 19.894531 C 3.214844 19.832031 3.1875 19.761719 3.191406 19.675781 Z M 3.191406 19.675781 " fill-opacity="1" fill-rule="nonzero"/></g></svg>