<svg xmlns="http://www.w3.org/2000/svg" xmlns:xlink="http://www.w3.org/1999/xlink" width="130" zoomAndPan="magnify" viewBox="0 0 97.5 30.000001" height="40" preserveAspectRatio="xMidYMid meet" version="1.0"><defs><clipPath id="776953e209"><path d="M 87 10 L 95.683594 10 L 95.683594 19 L 87 19 Z M 87 10 " clip-rule="nonzero"/></clipPath><clipPath id="9bb857228d"><path d="M 1.332031 11 L 15 11 L 15 25 L 1.332031 25 Z M 1.332031 11 " clip-rule="nonzero"/></clipPath></defs><g clip-path="url(#776953e209)"><path fill="#36393a" d="M 90.363281 11.050781 L 87.660156 11.050781 L 87.660156 18.671875 L 90.363281 18.671875 L 90.363281 14.734375 C 90.363281 13.761719 90.671875 12.945312 91.742188 12.945312 C 93.066406 12.945312 92.964844 14.222656 92.964844 14.9375 L 92.964844 18.621094 L 95.667969 18.621094 L 95.667969 13.914062 C 95.667969 12.074219 94.851562 10.746094 92.8125 10.746094 C 91.742188 10.746094 90.976562 11.050781 90.363281 11.972656 Z M 90.363281 11.050781 " fill-opacity="1" fill-rule="nonzero"/></g><path fill="#36393a" d="M 81.136719 11.050781 L 78.433594 11.050781 L 78.433594 18.671875 L 81.136719 18.671875 L 81.136719 14.734375 C 81.136719 13.761719 81.441406 12.945312 82.5625 12.945312 C 83.890625 12.945312 83.789062 14.222656 83.789062 14.9375 L 83.789062 18.621094 L 86.488281 18.621094 L 86.488281 13.914062 C 86.488281 12.074219 85.671875 10.746094 83.632812 10.746094 C 82.5625 10.746094 81.800781 11.050781 81.1875 11.972656 L 81.136719 11.972656 Z M 81.136719 11.050781 " fill-opacity="1" fill-rule="nonzero"/><path fill="#36393a" d="M 77.363281 11.050781 L 74.660156 11.050781 L 74.660156 11.765625 C 74.101562 11.101562 73.183594 10.796875 72.316406 10.796875 C 70.074219 10.796875 68.492188 12.636719 68.492188 14.835938 C 68.492188 17.035156 70.074219 18.925781 72.316406 18.925781 C 73.183594 18.925781 74.101562 18.570312 74.609375 17.800781 L 74.660156 17.800781 L 74.660156 18.621094 L 77.363281 18.621094 Z M 73.082031 13.148438 C 74.152344 13.148438 74.816406 13.914062 74.816406 14.835938 C 74.816406 15.808594 74.152344 16.574219 73.082031 16.574219 C 71.960938 16.574219 71.347656 15.859375 71.347656 14.835938 C 71.347656 13.914062 72.011719 13.148438 73.082031 13.148438 Z M 73.082031 13.148438 " fill-opacity="1" fill-rule="nonzero"/><path fill="#36393a" d="M 57.785156 11.050781 L 55.085938 11.050781 L 55.085938 18.671875 L 57.785156 18.671875 L 57.785156 15.039062 C 57.785156 14.222656 57.785156 12.890625 58.960938 12.890625 C 60.183594 12.890625 60.183594 14.222656 60.183594 15.039062 L 60.183594 18.671875 L 62.886719 18.671875 L 62.886719 15.039062 C 62.886719 14.171875 62.9375 12.945312 64.210938 12.945312 C 65.332031 12.945312 65.332031 14.273438 65.332031 15.039062 L 65.332031 18.671875 L 68.035156 18.671875 L 68.035156 13.863281 C 68.035156 12.074219 67.371094 10.847656 65.433594 10.847656 C 64.414062 10.847656 63.394531 11.359375 62.886719 12.328125 C 62.324219 11.308594 61.40625 10.847656 60.285156 10.847656 C 59.316406 10.847656 58.5 11.203125 57.890625 12.023438 L 57.835938 12.023438 L 57.835938 11.050781 Z M 57.785156 11.050781 " fill-opacity="1" fill-rule="nonzero"/><path fill="#36393a" d="M 45.957031 11.050781 L 45.957031 15.652344 C 45.957031 18.160156 47.742188 18.976562 50.039062 18.976562 C 52.332031 18.976562 54.117188 18.160156 54.117188 15.652344 L 54.117188 11.050781 L 51.414062 11.050781 L 51.414062 15.140625 C 51.414062 16.113281 51.160156 16.777344 50.089844 16.777344 C 48.96875 16.777344 48.761719 16.113281 48.761719 15.140625 L 48.761719 11.050781 Z M 45.957031 11.050781 " fill-opacity="1" fill-rule="nonzero"/><path fill="#36393a" d="M 44.734375 11.050781 L 42.035156 11.050781 L 42.035156 11.765625 C 41.472656 11.101562 40.554688 10.796875 39.6875 10.796875 C 37.445312 10.796875 35.863281 12.636719 35.863281 14.835938 C 35.863281 17.035156 37.445312 18.925781 39.6875 18.925781 C 40.554688 18.925781 41.472656 18.570312 41.980469 17.800781 L 42.035156 17.800781 L 42.035156 18.621094 L 44.734375 18.621094 Z M 40.402344 13.148438 C 41.523438 13.148438 42.136719 13.914062 42.136719 14.835938 C 42.136719 15.808594 41.472656 16.574219 40.402344 16.574219 C 39.332031 16.574219 38.667969 15.859375 38.667969 14.835938 C 38.667969 13.914062 39.332031 13.148438 40.402344 13.148438 Z M 40.402344 13.148438 " fill-opacity="1" fill-rule="nonzero"/><path fill="#36393a" d="M 33.007812 11.050781 L 30.308594 11.050781 L 30.308594 18.671875 L 33.007812 18.671875 L 33.007812 15.601562 C 33.007812 14.273438 33.367188 13.300781 34.84375 13.300781 C 35.253906 13.300781 35.660156 13.351562 36.015625 13.558594 L 36.015625 10.949219 L 35.507812 10.949219 C 34.4375 10.949219 33.570312 11.359375 33.0625 12.277344 L 33.007812 12.277344 Z M 33.007812 11.050781 " fill-opacity="1" fill-rule="nonzero"/><path fill="#36393a" d="M 28.625 13.300781 L 30.15625 13.300781 L 30.15625 11.050781 L 28.625 11.050781 L 28.625 8.75 L 25.972656 8.75 L 25.972656 11.050781 L 25.054688 11.050781 L 25.054688 13.300781 L 25.972656 13.300781 L 25.972656 18.671875 L 28.625 18.671875 Z M 28.625 13.300781 " fill-opacity="1" fill-rule="nonzero"/><path fill="#36393a" d="M 24.597656 11.308594 C 23.78125 10.949219 22.964844 10.796875 22.097656 10.796875 C 20.417969 10.796875 18.734375 11.613281 18.734375 13.507812 C 18.734375 14.886719 19.601562 15.296875 20.417969 15.550781 C 21.285156 15.757812 22.097656 15.808594 22.097656 16.421875 C 22.097656 16.828125 21.589844 16.984375 21.234375 16.984375 C 20.570312 16.984375 19.652344 16.574219 19.089844 16.164062 L 18.121094 18.058594 C 19.039062 18.621094 20.109375 18.925781 21.183594 18.925781 C 22.964844 18.925781 24.75 18.109375 24.75 16.0625 C 24.75 14.683594 23.78125 14.070312 22.558594 13.8125 C 22.203125 13.761719 21.335938 13.660156 21.335938 13.148438 C 21.335938 12.789062 21.894531 12.636719 22.203125 12.636719 C 22.660156 12.636719 23.222656 12.789062 23.628906 12.996094 Z M 24.597656 11.308594 " fill-opacity="1" fill-rule="nonzero"/><path fill="#36393a" d="M 16.03125 4.453125 C 12.105469 7.0625 8.179688 9.722656 4.257812 12.328125 C 2.523438 13.660156 2.574219 15.703125 3.746094 17.390625 L 15.980469 9.160156 Z M 16.03125 4.453125 " fill-opacity="1" fill-rule="nonzero"/><g clip-path="url(#9bb857228d)"><path fill="#36393a" d="M 1.554688 24.910156 C 5.480469 22.300781 9.40625 19.640625 13.332031 17.035156 C 15.0625 15.703125 15.011719 13.660156 13.839844 11.972656 L 1.605469 20.203125 Z M 1.554688 24.910156 " fill-opacity="1" fill-rule="nonzero"/></g></svg>